<svg xmlns="http://www.w3.org/2000/svg" version="1.1" xmlns:xlink="http://www.w3.org/1999/xlink" xmlns:svgjs="http://svgjs.dev/svgjs" width="2000" height="1500" viewBox="0 0 2000 1500"><rect width="2000" height="1500" fill="#e9e2da"></rect><g transform="matrix(0.75,0,0,0.75,250.90479648093833,393.06168981481466)"><svg viewBox="0 0 341 162" data-background-color="#e9e2da" preserveAspectRatio="xMidYMid meet" height="950" width="2000" xmlns="http://www.w3.org/2000/svg" xmlns:xlink="http://www.w3.org/1999/xlink"><g id="tight-bounds" transform="matrix(1,0,0,1,-0.2056903999999804,0.1565000000000225)"><svg viewBox="0 0 341.41138079999996 161.68656506359974" height="161.68656506359974" width="341.41138079999996"><g><svg viewBox="0 0 341.41138079999996 161.68656506359974" height="161.68656506359974" width="341.41138079999996"><g><svg viewBox="0 0 341.41138079999996 161.68656506359974" height="161.68656506359974" width="341.41138079999996"><g><svg viewBox="0 0 341.41138079999996 161.68656506359974" height="161.68656506359974" width="341.41138079999996"><g><path d="M0 161.687v-161.687h341.411v161.687z" fill="#1b2141" stroke="transparent" stroke-width="0" rx="0%" data-fill-palette-color="tertiary"></path><path d="M4.509 157.178v-152.669h332.393v152.669z" fill="#e9e2da" stroke="transparent" stroke-width="0" rx="0%" data-fill-palette-color="quaternary"></path><path d="M13.527 148.159v-134.632h314.357v134.632z" fill="#1b2141" stroke="transparent" stroke-width="0" data-fill-palette-color="tertiary"></path></g><g transform="matrix(1,0,0,1,27.054309599999996,27.054309599999996)" id="textblocktransform"><svg viewBox="0 0 287.30276159999994 107.57794586359974" height="107.57794586359974" width="287.30276159999994" id="textblock"><g><svg viewBox="0 0 287.30276159999994 80.86363524350591" height="80.86363524350591" width="287.30276159999994"><g transform="matrix(1,0,0,1,0,0)"><svg width="287.30276159999994" viewBox="0.49 -35.01 168.78 47.510000000000005" height="80.86363524350591" data-palette-color="#e9e2da"><path d="M11.01-31.69L0.49-31.69 0.49-35.01 26-35.01 26-31.69 15.5-31.69 15.5 0 11.01 0 11.01-31.69ZM28.29-7.91L28.29-7.91Q28.29-11.25 30.73-13.5 33.18-15.75 37.6-15.75L37.6-15.75 44.24-15.75 44.24-17.65Q44.24-19.95 43.33-20.92 42.43-21.9 39.99-21.9L39.99-21.9Q38.18-21.9 34.49-21.51L34.49-21.51 31.13-21.09 31.13-25Q33.84-25.2 35.13-25.34L35.13-25.34Q39.52-25.73 41.67-25.76L41.67-25.76Q45.21-25.76 46.87-23.75 48.53-21.75 48.53-19.14L48.53-19.14 48.53 0 45.38 0 44.68-2.44 44.53-2.44Q40.18 0.51 36.18 0.49L36.18 0.49Q32.37 0.49 30.33-2.09 28.29-4.66 28.29-7.91ZM32.64-7.91L32.64-7.91Q32.64-5.96 33.66-4.41 34.69-2.86 37.03-2.86L37.03-2.86Q38.69-2.86 40.74-3.58 42.8-4.3 44.19-5.25L44.19-5.25 44.24-5.25 44.24-12.4 37.6-12.4Q32.64-12.4 32.64-7.91ZM55.12-3.25L55.12-3.25 57.81-6.1Q58.76-5.35 60.27-4.54L60.27-4.54Q63.18-3.05 65.25-3.05L65.25-3.05Q67.11-3.05 68.92-4.08 70.72-5.1 70.72-6.96L70.72-6.96Q70.72-8.67 68.99-9.75 67.26-10.84 63.15-12.35L63.15-12.35Q61.45-12.96 60.51-13.35 59.57-13.75 58.34-14.53 57.12-15.31 56.54-16.36 55.95-17.41 55.95-18.75L55.95-18.75Q55.95-21.9 58.86-23.83 61.76-25.76 65.4-25.76L65.4-25.76Q68.11-25.76 71.21-24.44L71.21-24.44Q72.5-23.88 73.65-23.14L73.65-23.14 71.11-20.09Q70.31-20.58 69.36-21L69.36-21Q67.16-21.95 65.4-21.95L65.4-21.95Q63.35-21.95 61.73-21.04 60.1-20.14 60.1-18.75L60.1-18.75Q60.1-18.31 60.51-17.88 60.91-17.46 61.79-17.05 62.67-16.65 63.29-16.41 63.91-16.16 65.06-15.75L65.06-15.75Q67.87-14.7 69.23-14.07 70.6-13.45 72.13-12.4 73.65-11.35 74.26-10.05 74.87-8.74 74.87-6.96L74.87-6.96Q74.87-4.42 73.16-2.59 71.45-0.76 69.36 0 67.26 0.76 65.25 0.76L65.25 0.76Q62.2 0.76 58.32-1.25L58.32-1.25Q56.61-2.15 55.12-3.25ZM87.71 0L79.85-25 84.37-25 90.06-5.2 95.87-25 100.07-25 105.8-5.2 111.56-25 116.06-25 108.2 0 103.41 0 97.92-19.75 92.45 0 87.71 0ZM120.01-7.91L120.01-7.91Q120.01-11.25 122.45-13.5 124.89-15.75 129.31-15.75L129.31-15.75 135.95-15.75 135.95-17.65Q135.95-19.95 135.05-20.92 134.15-21.9 131.7-21.9L131.7-21.9Q129.9-21.9 126.21-21.51L126.21-21.51 122.84-21.09 122.84-25Q125.55-25.2 126.85-25.34L126.85-25.34Q131.24-25.73 133.39-25.76L133.39-25.76Q136.93-25.76 138.59-23.75 140.25-21.75 140.25-19.14L140.25-19.14 140.25 0 137.1 0 136.39-2.44 136.24-2.44Q131.9 0.51 127.9 0.49L127.9 0.49Q124.09 0.49 122.05-2.09 120.01-4.66 120.01-7.91ZM124.36-7.91L124.36-7.91Q124.36-5.96 125.38-4.41 126.41-2.86 128.75-2.86L128.75-2.86Q130.41-2.86 132.46-3.58 134.51-4.3 135.9-5.25L135.9-5.25 135.95-5.25 135.95-12.4 129.31-12.4Q124.36-12.4 124.36-7.91ZM146.84-11.84L146.84-11.84Q146.84-14.55 147.66-16.98 148.47-19.41 150.1-21.4 151.72-23.39 154.53-24.57 157.34-25.76 160.93-25.76L160.93-25.76Q163.07-25.76 166.37-25.24L166.37-25.24Q168.47-24.9 169.27-24.76L169.27-24.76 169.27 12.5 165.08 12.5 165.08-0.81Q161.32 0.49 158.02 0.49L158.02 0.49Q152.97 0.49 149.9-3.3 146.84-7.08 146.84-11.84ZM150.99-11.84L150.99-11.84Q150.99-8.64 152.98-5.99 154.97-3.34 158.02-3.34L158.02-3.34Q160.88-3.34 165.03-4.96L165.03-4.96 165.03-21.46 163.49-21.66Q162.1-21.9 160.93-21.9L160.93-21.9Q156.02-21.9 153.5-18.97 150.99-16.04 150.99-11.84Z" opacity="1" transform="matrix(1,0,0,1,0,0)" fill="#e9e2da" class="wordmark-text-0" data-fill-palette-color="quaternary" id="text-0"></path></svg></g></svg></g><g transform="matrix(1,0,0,1,54.87482746559999,89.88173844350591)"><svg viewBox="0 0 177.55310666879996 17.696207420093828" height="17.696207420093828" width="177.55310666879996"><g transform="matrix(1,0,0,1,0,0)"><svg width="177.55310666879996" viewBox="1.95 -24.85 255.32999999999998 25.450000000000003" height="17.696207420093828" data-palette-color="#e9e2da"><path d="M12.95 0.6L12.95 0.6Q9.4 0.6 6.95-1.05 4.5-2.7 3.23-5.48 1.95-8.25 1.95-11.6L1.95-11.6Q1.95-15.05 3.28-18 4.6-20.95 7.15-22.78 9.7-24.6 13.35-24.6L13.35-24.6Q17.75-24.6 20.23-21.98 22.7-19.35 22.7-15.2L22.7-15.2Q22.7-14.7 22.68-14.33 22.65-13.95 22.6-13.7L22.6-13.7 6.85-13.85Q6.85-13.65 6.85-13.5L6.85-13.5Q6.85-8.6 9.1-5.8 11.35-3 15.4-3L15.4-3Q18.8-3 22.1-5.2L22.1-5.2Q22.6-4.6 22.85-4.05L22.85-4.05Q18.6 0.6 12.95 0.6ZM7-15.7L7-15.7 17.35-15.9Q17.4-16 17.4-16.18 17.4-16.35 17.4-16.4L17.4-16.4Q17.4-19.1 16.23-20.9 15.05-22.7 12.75-22.7L12.75-22.7Q10.6-22.7 9-20.95 7.4-19.2 7-15.7ZM46.55-4.85L46.55-4.85Q47.05-4.25 47.3-3.7L47.3-3.7Q43.15 0.6 37.8 0.6L37.8 0.6Q34.35 0.6 31.9-1.05 29.45-2.7 28.12-5.45 26.8-8.2 26.8-11.55L26.8-11.55Q26.8-15.2 28.3-18.15 29.8-21.1 32.52-22.85 35.25-24.6 38.8-24.6L38.8-24.6Q40.65-24.6 42.55-24.08 44.45-23.55 45.75-22.45 47.05-21.35 47.05-19.65L47.05-19.65Q47.05-18.3 46.25-17.6 45.45-16.9 44.35-16.9L44.35-16.9Q42.85-16.9 41.8-18.28 40.75-19.65 40.75-21.95L40.75-21.95Q39.85-22.55 38.35-22.55L38.35-22.55Q36.55-22.55 35.32-21.65 34.1-20.75 33.32-19.25 32.55-17.75 32.2-16.03 31.85-14.3 31.85-12.65L31.85-12.65Q31.85-9.85 32.8-7.65 33.75-5.45 35.6-4.17 37.45-2.9 40.2-2.9L40.2-2.9Q41.8-2.9 43.32-3.35 44.85-3.8 46.55-4.85ZM62.45 0.6L62.45 0.6Q58.8 0.6 56.07-0.98 53.35-2.55 51.85-5.33 50.35-8.1 50.35-11.7L50.35-11.7Q50.35-15.6 51.92-18.5 53.5-21.4 56.35-23 59.2-24.6 62.9-24.6L62.9-24.6Q66.55-24.6 69.25-23 71.95-21.4 73.45-18.6 74.95-15.8 74.95-12.25L74.95-12.25Q74.95-8.6 73.37-5.68 71.8-2.75 69-1.07 66.2 0.6 62.45 0.6ZM56-12.3L56-12.3Q56-7.2 57.67-4.23 59.35-1.25 62.7-1.25L62.7-1.25Q65.9-1.25 67.59-4.08 69.3-6.9 69.3-11.65L69.3-11.65Q69.3-16.7 67.59-19.7 65.9-22.7 62.65-22.7L62.65-22.7Q59.45-22.7 57.72-19.95 56-17.2 56-12.3ZM108.64 0.05L108.64 0.05Q108.49-0.75 108.64-1.5L108.64-1.5Q110.14-1.6 110.89-1.83 111.64-2.05 111.92-2.8 112.19-3.55 112.19-5.2L112.19-5.2 112.19-15.3Q112.19-18.25 111.32-19.75 110.44-21.25 107.74-21.25L107.74-21.25Q104.39-21.25 102.04-18.75L102.04-18.75Q102.14-17.95 102.14-17.05L102.14-17.05 102.14-5.7Q102.14-3.75 102.37-2.9 102.59-2.05 103.34-1.83 104.09-1.6 105.64-1.5L105.64-1.5Q105.74-0.75 105.64 0.05L105.64 0.05Q104.24 0.05 102.84 0 101.44-0.05 99.54-0.05L99.54-0.05Q97.69-0.05 96.32 0 94.94 0.05 93.69 0.05L93.69 0.05Q93.54-0.75 93.69-1.5L93.69-1.5Q95.14-1.6 95.87-1.83 96.59-2.05 96.84-2.8 97.09-3.55 97.09-5.2L97.09-5.2 97.09-15.3Q97.09-18.25 96.24-19.75 95.39-21.25 92.64-21.25L92.64-21.25Q89.49-21.25 87.14-18.7L87.14-18.7 87.14-5.7Q87.14-3.75 87.37-2.9 87.59-2.05 88.37-1.83 89.14-1.6 90.74-1.5L90.74-1.5Q90.84-0.75 90.74 0.05L90.74 0.05Q89.34 0.05 87.87 0 86.39-0.05 84.49-0.05L84.49-0.05Q82.69-0.05 81.24 0 79.79 0.05 78.29 0.05L78.29 0.05Q78.14-0.75 78.29-1.5L78.29-1.5Q79.99-1.6 80.79-1.83 81.59-2.05 81.84-2.8 82.09-3.55 82.09-5.2L82.09-5.2 82.09-16.4Q82.09-18.35 81.92-19.3 81.74-20.25 80.97-20.63 80.19-21 78.34-21.25L78.34-21.25Q78.19-21.95 78.34-22.55L78.34-22.55Q80.44-22.95 82.39-23.5 84.34-24.05 86.24-24.85L86.24-24.85 87.09-24.55 87.09-20.85Q91.14-24.6 95.54-24.6L95.54-24.6Q98.29-24.6 99.69-23.45 101.09-22.3 101.64-20.6L101.64-20.6Q103.79-22.65 106.04-23.63 108.29-24.6 110.59-24.6L110.59-24.6Q113.89-24.6 115.57-22.65 117.24-20.7 117.24-17.05L117.24-17.05 117.24-5.7Q117.24-3.75 117.44-2.9 117.64-2.05 118.39-1.83 119.14-1.6 120.69-1.5L120.69-1.5Q120.84-0.75 120.69 0.05L120.69 0.05Q119.29 0.05 117.89 0 116.49-0.05 114.64-0.05L114.64-0.05Q112.74-0.05 111.32 0 109.89 0.05 108.64 0.05ZM153.44 0.05L153.44 0.05Q153.29-0.75 153.44-1.5L153.44-1.5Q154.94-1.6 155.69-1.83 156.44-2.05 156.72-2.8 156.99-3.55 156.99-5.2L156.99-5.2 156.99-15.3Q156.99-18.25 156.12-19.75 155.24-21.25 152.54-21.25L152.54-21.25Q149.19-21.25 146.84-18.75L146.84-18.75Q146.94-17.95 146.94-17.05L146.94-17.05 146.94-5.7Q146.94-3.75 147.17-2.9 147.39-2.05 148.14-1.83 148.89-1.6 150.44-1.5L150.44-1.5Q150.54-0.75 150.44 0.05L150.44 0.05Q149.04 0.05 147.64 0 146.24-0.05 144.34-0.05L144.34-0.05Q142.49-0.05 141.12 0 139.74 0.05 138.49 0.05L138.49 0.05Q138.34-0.75 138.49-1.5L138.49-1.5Q139.94-1.6 140.67-1.83 141.39-2.05 141.64-2.8 141.89-3.55 141.89-5.2L141.89-5.2 141.89-15.3Q141.89-18.25 141.04-19.75 140.19-21.25 137.44-21.25L137.44-21.25Q134.29-21.25 131.94-18.7L131.94-18.7 131.94-5.7Q131.94-3.75 132.17-2.9 132.39-2.05 133.17-1.83 133.94-1.6 135.54-1.5L135.54-1.5Q135.64-0.75 135.54 0.05L135.54 0.05Q134.14 0.05 132.67 0 131.19-0.05 129.29-0.05L129.29-0.05Q127.49-0.05 126.04 0 124.59 0.05 123.09 0.05L123.09 0.05Q122.94-0.75 123.09-1.5L123.09-1.5Q124.79-1.6 125.59-1.83 126.39-2.05 126.64-2.8 126.89-3.55 126.89-5.2L126.89-5.2 126.89-16.4Q126.89-18.35 126.72-19.3 126.54-20.25 125.77-20.63 124.99-21 123.14-21.25L123.14-21.25Q122.99-21.95 123.14-22.55L123.14-22.55Q125.24-22.95 127.19-23.5 129.14-24.05 131.04-24.85L131.04-24.85 131.89-24.55 131.89-20.85Q135.94-24.6 140.34-24.6L140.34-24.6Q143.09-24.6 144.49-23.45 145.89-22.3 146.44-20.6L146.44-20.6Q148.59-22.65 150.84-23.63 153.09-24.6 155.39-24.6L155.39-24.6Q158.69-24.6 160.37-22.65 162.04-20.7 162.04-17.05L162.04-17.05 162.04-5.7Q162.04-3.75 162.24-2.9 162.44-2.05 163.19-1.83 163.94-1.6 165.49-1.5L165.49-1.5Q165.64-0.75 165.49 0.05L165.49 0.05Q164.09 0.05 162.69 0 161.29-0.05 159.44-0.05L159.44-0.05Q157.54-0.05 156.12 0 154.69 0.05 153.44 0.05ZM179.49 0.6L179.49 0.6Q175.94 0.6 173.49-1.05 171.04-2.7 169.76-5.48 168.49-8.25 168.49-11.6L168.49-11.6Q168.49-15.05 169.81-18 171.14-20.95 173.69-22.78 176.24-24.6 179.89-24.6L179.89-24.6Q184.29-24.6 186.76-21.98 189.24-19.35 189.24-15.2L189.24-15.2Q189.24-14.7 189.21-14.33 189.19-13.95 189.14-13.7L189.14-13.7 173.39-13.85Q173.39-13.65 173.39-13.5L173.39-13.5Q173.39-8.6 175.64-5.8 177.89-3 181.94-3L181.94-3Q185.34-3 188.64-5.2L188.64-5.2Q189.14-4.6 189.39-4.05L189.39-4.05Q185.14 0.6 179.49 0.6ZM173.54-15.7L173.54-15.7 183.89-15.9Q183.94-16 183.94-16.18 183.94-16.35 183.94-16.4L183.94-16.4Q183.94-19.1 182.76-20.9 181.59-22.7 179.29-22.7L179.29-22.7Q177.14-22.7 175.54-20.95 173.94-19.2 173.54-15.7ZM192.74 0.05L192.74 0.05Q192.59-0.75 192.74-1.5L192.74-1.5Q194.44-1.6 195.24-1.83 196.04-2.05 196.29-2.8 196.54-3.55 196.54-5.2L196.54-5.2 196.54-16.4Q196.54-18.35 196.36-19.3 196.19-20.25 195.41-20.63 194.64-21 192.79-21.25L192.79-21.25Q192.64-21.95 192.79-22.55L192.79-22.55Q194.79-22.95 196.69-23.48 198.59-24 200.69-24.85L200.69-24.85 201.54-24.55 201.54-20.15Q205.04-24.6 208.69-24.6L208.69-24.6Q210.44-24.6 211.29-23.68 212.14-22.75 212.14-21.6L212.14-21.6Q212.14-20.25 211.24-19.53 210.34-18.8 209.19-18.8L209.19-18.8Q208.24-18.8 207.31-19.3 206.39-19.8 205.94-20.85L205.94-20.85Q204.24-20.85 202.91-19.53 201.59-18.2 201.59-16.45L201.59-16.45 201.59-5.7Q201.59-3.75 201.81-2.9 202.04-2.05 203.01-1.83 203.99-1.6 206.19-1.5L206.19-1.5Q206.29-0.8 206.19 0.05L206.19 0.05Q204.49 0.05 202.69 0 200.89-0.05 198.99-0.05L198.99-0.05Q197.14-0.05 195.71 0 194.29 0.05 192.74 0.05ZM232.58-4.85L232.58-4.85Q233.08-4.25 233.33-3.7L233.33-3.7Q229.18 0.6 223.83 0.6L223.83 0.6Q220.38 0.6 217.93-1.05 215.48-2.7 214.16-5.45 212.83-8.2 212.83-11.55L212.83-11.55Q212.83-15.2 214.33-18.15 215.83-21.1 218.56-22.85 221.28-24.6 224.83-24.6L224.83-24.6Q226.68-24.6 228.58-24.08 230.48-23.55 231.78-22.45 233.08-21.35 233.08-19.65L233.08-19.65Q233.08-18.3 232.28-17.6 231.48-16.9 230.38-16.9L230.38-16.9Q228.88-16.9 227.83-18.28 226.78-19.65 226.78-21.95L226.78-21.95Q225.88-22.55 224.38-22.55L224.38-22.55Q222.58-22.55 221.36-21.65 220.13-20.75 219.36-19.25 218.58-17.75 218.23-16.03 217.88-14.3 217.88-12.65L217.88-12.65Q217.88-9.85 218.83-7.65 219.78-5.45 221.63-4.17 223.48-2.9 226.23-2.9L226.23-2.9Q227.83-2.9 229.36-3.35 230.88-3.8 232.58-4.85ZM247.38 0.6L247.38 0.6Q243.83 0.6 241.38-1.05 238.93-2.7 237.66-5.48 236.38-8.25 236.38-11.6L236.38-11.6Q236.38-15.05 237.71-18 239.03-20.95 241.58-22.78 244.13-24.6 247.78-24.6L247.78-24.6Q252.18-24.6 254.66-21.98 257.13-19.35 257.13-15.2L257.13-15.2Q257.13-14.7 257.11-14.33 257.08-13.95 257.03-13.7L257.03-13.7 241.28-13.85Q241.28-13.65 241.28-13.5L241.28-13.5Q241.28-8.6 243.53-5.8 245.78-3 249.83-3L249.83-3Q253.23-3 256.53-5.2L256.53-5.2Q257.03-4.6 257.28-4.05L257.28-4.05Q253.03 0.6 247.38 0.6ZM241.43-15.7L241.43-15.7 251.78-15.9Q251.83-16 251.83-16.18 251.83-16.35 251.83-16.4L251.83-16.4Q251.83-19.1 250.66-20.9 249.48-22.7 247.18-22.7L247.18-22.7Q245.03-22.7 243.43-20.95 241.83-19.2 241.43-15.7Z" opacity="1" transform="matrix(1,0,0,1,0,0)" fill="#e9e2da" class="slogan-text-1" data-fill-palette-color="quaternary" id="text-1"></path></svg></g></svg></g></svg></g></svg></g><g></g></svg></g></svg></g><defs></defs></svg><rect width="341.41138079999996" height="161.68656506359974" fill="none" stroke="none" visibility="hidden"></rect></g></svg></g></svg>